<?xml version="1.0" encoding="UTF-8"?><svg id="_レイヤー_1" xmlns="http://www.w3.org/2000/svg" viewBox="0 0 600 600"><defs><style>.cls-1{fill:#816e69;}.cls-2{fill:#bc9c87;}.cls-3{fill:#3a383f;}</style></defs><g><path class="cls-1" d="M555.81,128.26c-24.59-24.59-55.71-38.64-87.77-42.23h0c-.09-.02-.18-.02-.28-.03-1.32-.15-2.64-.28-3.96-.38-99.35-9.8-202.14,23.32-278.24,99.42-75.67,75.67-108.85,177.73-99.58,276.56,2.24,31.84,14.71,63.1,37.53,88.29,50.82,56.08,133.6,63.58,193.02,22.59,0,0,19.43-15.95,29.78-5.8,.03,.03,.06,.04,.09,.07,6.91,7.44,12.88,11.39,16.12,13.21,1.09,.61,2.39-.26,2.25-1.5-.85-7.34-1.28-14.8-1.28-22.36,0-12.21,1.15-24.15,3.32-35.72,1.51-8.03,3.81-15.89,6.34-23.67,.25-.77,.47-1.55,.71-2.33,9.2-27.28,24.65-52.92,46.39-74.66,20.82-20.82,45.22-35.89,71.22-45.2,23.57-6.6,45.82-19.14,64.36-37.68,57.59-57.59,57.59-150.97,0-208.56Z"/><path class="cls-2" d="M344.82,29c-7.05,4.91-25.95,15.01-48.32,1.98-.88-.56-1.77-1.1-2.66-1.64-.06-.04-.13-.08-.19-.12h0C219.43-15.58,121.58-5.97,57.53,58.08,9.04,106.57-8.26,174.45,5.65,236.77c9.15,41,64.64,48.32,84.47,11.28,17.37-32.45,39.73-62.92,67.1-90.29h0c42.12-42.12,91.6-72.39,144.3-90.82,0,0,39.53-8.85,45.64-36.32,.3-1.36-1.19-2.42-2.33-1.62Z"/></g><ellipse class="cls-3" cx="315.43" cy="302.14" rx="63.03" ry="94.52"/><ellipse class="cls-3" cx="524" cy="435.52" rx="51.94" ry="34.64"/></svg>